<?xml version="1.0" encoding="UTF-8" standalone="no"?>
<svg
   xmlns:dc="http://purl.org/dc/elements/1.1/"
   xmlns:cc="http://creativecommons.org/ns#"
   xmlns:rdf="http://www.w3.org/1999/02/22-rdf-syntax-ns#"
   xmlns:svg="http://www.w3.org/2000/svg"
   xmlns="http://www.w3.org/2000/svg"
   viewBox="0 0 1066.6667 209.12"
   height="209.12"
   width="1066.6667"
   xml:space="preserve"
   id="svg2"
   version="1.1"><metadata
     id="metadata8"><rdf:RDF><cc:Work
         rdf:about=""><dc:format>image/svg+xml</dc:format><dc:type
           rdf:resource="http://purl.org/dc/dcmitype/StillImage" /></cc:Work></rdf:RDF></metadata><defs
     id="defs6" /><g
     transform="matrix(1.3333333,0,0,-1.3333333,0,209.12)"
     id="g10"><g
       transform="scale(0.1)"
       id="g12"><path
         id="path14"
         style="fill:#ffffff;fill-opacity:1;fill-rule:nonzero;stroke:none"
         d="m 1275.02,1209.32 c 222.51,72.84 304.97,78.1 414.47,78.1 l 56.53,-0.11 h 383.26 v 162.14 c 0,65.37 -53.48,118.92 -118.86,118.92 H 679.91 c -65.379,0 -118.898,-53.55 -118.898,-118.92 v -425.2 c 15.59,-15.36 27.574,-34.75 36.183,-53.184 128.325,46.624 476.315,172.264 677.825,238.254" /><path
         id="path16"
         style="fill:#ffffff;fill-opacity:1;fill-rule:nonzero;stroke:none"
         d="m 2801.12,800.277 c 0,60.793 58.09,90.539 125.54,90.539 113.4,0 133.66,-72.929 184.97,-72.929 36.4,0 54.02,22.933 54.02,48.558 0,74.328 -140.43,126.973 -238.99,126.973 -120.13,0 -244.38,-70.254 -244.38,-202.5 0,-199.848 383.45,-191.73 383.45,-332.18 0,-48.539 -52.66,-97.207 -139.07,-97.207 -129.6,0 -172.79,87.789 -225.45,87.789 -25.68,0 -48.59,-21.59 -48.59,-53.968 0,-60.762 118.79,-136.383 269.96,-136.383 133.71,0 261.93,71.57 261.93,221.41 0,207.898 -383.39,194.344 -383.39,319.898" /><path
         id="path18"
         style="fill:#ffffff;fill-opacity:1;fill-rule:nonzero;stroke:none"
         d="m 3539.55,890.816 c 81.04,0 98.57,-37.82 144.47,-37.82 28.35,0 48.6,25.598 48.6,49.934 0,48.644 -71.57,90.488 -193.07,90.488 -218.71,0 -323.98,-176.859 -323.98,-367.27 0,-190.269 105.27,-367.179 323.98,-367.179 122.92,0 189,48.613 189,93.172 0,32.39 -18.89,49.949 -45.92,49.949 -37.77,0 -59.37,-40.559 -143.08,-40.559 -147.12,0 -205.22,143.141 -205.22,264.617 0,121.536 58.1,264.668 205.22,264.668" /><path
         id="path20"
         style="fill:#ffffff;fill-opacity:1;fill-rule:nonzero;stroke:none"
         d="m 4138.96,993.418 c -71.54,0 -145.82,-27.02 -198.43,-94.539 l -2.7,2.699 v 344.252 c 0,39.15 -22.95,63.44 -59.41,63.44 -36.43,0 -59.38,-24.29 -59.38,-63.44 V 322.398 c 0,-39.117 22.95,-63.429 59.38,-63.429 36.46,0 59.41,24.312 59.41,63.429 v 391.551 c 0,125.539 87.73,176.867 166.07,176.867 78.26,0 166.02,-51.328 166.02,-176.867 V 322.398 c 0,-39.117 23.01,-63.429 59.42,-63.429 36.42,0 59.36,24.312 59.36,63.429 V 720.73 c 0,202.434 -138.98,272.688 -249.74,272.688" /><path
         id="path22"
         style="fill:#ffffff;fill-opacity:1;fill-rule:nonzero;stroke:none"
         d="m 4781.51,361.531 c -145.74,0 -197.02,143.141 -197.02,264.617 0,121.536 51.28,264.668 197.02,264.668 145.82,0 197.17,-143.132 197.17,-264.668 0,-121.476 -51.35,-264.617 -197.17,-264.617 z m 0,631.887 c -202.43,0 -315.83,-176.859 -315.83,-367.27 0,-190.269 113.4,-367.179 315.83,-367.179 202.54,0 315.94,176.91 315.94,367.179 0,190.411 -113.4,367.27 -315.94,367.27" /><path
         id="path24"
         style="fill:#ffffff;fill-opacity:1;fill-rule:nonzero;stroke:none"
         d="m 5478.15,361.531 c -145.75,0 -197.09,143.141 -197.09,264.617 0,121.536 51.34,264.668 197.09,264.668 145.89,0 197.16,-143.132 197.16,-264.668 0,-121.476 -51.27,-264.617 -197.16,-264.617 z m 0,631.887 c -202.5,0 -315.9,-176.859 -315.9,-367.27 0,-190.269 113.4,-367.179 315.9,-367.179 202.54,0 315.97,176.91 315.97,367.179 0,190.411 -113.43,367.27 -315.97,367.27" /><path
         id="path26"
         style="fill:#ffffff;fill-opacity:1;fill-rule:nonzero;stroke:none"
         d="m 5925.05,1309.27 c -36.46,0 -59.35,-24.29 -59.35,-63.44 V 322.398 c 0,-39.117 22.89,-63.429 59.35,-63.429 36.49,0 59.39,24.312 59.39,63.429 v 923.432 c 0,39.15 -22.9,63.44 -59.39,63.44" /><path
         id="path28"
         style="fill:#ffffff;fill-opacity:1;fill-rule:nonzero;stroke:none"
         d="m 6392.17,361.531 c -145.78,0 -197.11,143.141 -197.11,264.617 0,121.536 51.33,264.668 197.11,264.668 145.8,0 197.13,-143.132 197.13,-264.668 0,-121.476 -51.33,-264.617 -197.13,-264.617 z m 9.46,631.887 c -94.51,0 -160.68,-52.645 -191.72,-97.211 h -2.71 v 349.623 c 0,39.15 -22.93,63.44 -59.39,63.44 -36.42,0 -59.41,-24.29 -59.41,-63.44 V 322.398 c 0,-39.117 22.99,-63.429 59.41,-63.429 36.46,0 59.39,24.312 59.39,63.429 v 35.153 h 2.71 c 33.75,-64.832 97.21,-98.582 191.72,-98.582 194.38,0 306.45,176.91 306.45,367.179 0,190.411 -112.07,367.27 -306.45,367.27" /><path
         id="path30"
         style="fill:#ffffff;fill-opacity:1;fill-rule:nonzero;stroke:none"
         d="m 7091.45,361.531 c -145.82,0 -197.09,143.141 -197.09,264.617 0,121.536 51.27,264.668 197.09,264.668 145.85,0 197.16,-143.132 197.16,-264.668 0,-121.476 -51.31,-264.617 -197.16,-264.617 z m 0,631.887 c -202.43,0 -315.91,-176.859 -315.91,-367.27 0,-190.269 113.48,-367.179 315.91,-367.179 202.57,0 315.94,176.91 315.94,367.179 0,190.411 -113.37,367.27 -315.94,367.27" /><path
         id="path32"
         style="fill:#ffffff;fill-opacity:1;fill-rule:nonzero;stroke:none"
         d="m 7975.7,369.672 -211.91,278.078 186.3,244.398 c 14.9,18.899 20.23,35.106 20.23,47.274 0,29.695 -21.56,53.996 -49.97,53.996 -26.97,0 -39.16,-12.168 -51.31,-27.02 L 7694.88,734.215 7520.76,966.398 c -12.05,14.852 -24.35,27.02 -51.28,27.02 -28.27,0 -49.91,-24.301 -49.91,-53.996 0,-12.168 5.34,-28.375 20.13,-47.274 L 7626.11,647.75 7414.1,369.672 c -18.9,-25.672 -24.27,-43.203 -24.27,-56.684 0,-29.707 22.97,-54.019 54.01,-54.019 20.23,0 40.49,9.41 52.57,26.98 l 198.47,275.481 198.5,-275.481 c 12.18,-17.57 32.38,-26.98 52.64,-26.98 31.05,0 53.98,24.312 53.98,54.019 0,13.481 -5.37,31.012 -24.3,56.684" /><path
         id="path34"
         style="fill:#ffffff;fill-opacity:1;fill-rule:nonzero;stroke:none"
         d="m 1403.09,1093.91 c 55.47,20.52 112.94,3.48 128.27,-38.09 14.58,-39.16 -13.65,-85.761 -63.32,-108.304 25.56,16.804 39.19,42.152 31.27,63.394 -9.79,26.72 -49.46,36.59 -88.65,22.03 -39.2,-14.45 -62.88,-47.835 -53.01,-74.624 2.12,-5.699 5.83,-10.453 10.39,-14.546 -17.53,7.906 -31.22,20.589 -37.54,37.703 -15.38,41.557 17.17,91.917 72.59,112.437 z m 717.86,46.95 c -25.31,0 -102.42,0 -181.93,-21.38 -182.11,-48.65 -239.56,-112.64 -290.23,-169.019 -44.62,-49.82 -86.77,-96.836 -191.72,-121.566 -21.63,-5.032 -42.77,-7.649 -62.78,-7.649 -105.22,0 -158.46,67.895 -176.36,97.055 l -5.17,8.418 -37.95,22.441 h 75.16 l 4.94,-8.047 c 14.19,-22.929 56.07,-76.312 139.38,-76.312 16.74,0 34.48,2.226 52.79,6.488 91.57,21.527 127.6,61.715 169.29,108.078 54.68,60.993 116.69,130.143 311.39,182.153 85.11,22.79 166.49,22.79 193.19,22.79 h 512.74 c 0,0 -8.4,50.99 -333.26,50.99 -303.15,0 -415.82,0 -554.41,0 -141.16,0 -203.56,6.8 -454.77,-75.46 -251.28,-82.29 -725.512,-255.57 -725.512,-255.57 0,0 -15.215,64.984 -47.699,88.808 -32.465,23.792 -51.976,19.512 -26,-15.168 26,-34.672 -12.922,-106.14 -90.945,-147.269 -77.992,-41.129 -98.235,-38.661 -130.723,-66.844 0,0 -50.023,-12.649 -143.457,-7.981 -93.4765,4.661 -118.15619,8.625 -126.152281,3.34 -8.074219,-5.39 48.726581,-42.09 133.457281,-54.785 60.457,-9.004 93.195,-11.473 111.883,-18.965 119.836,-40.293 173.238,-185.668 543.957,-185.668 59.679,0 117.613,4.071 174.402,11.231 -22.578,-34.809 -51.981,-81.02 -81.93,-130.199 -5.992,-0.149 -11.996,-0.559 -17.968,-0.559 -122.524,0 -222.477,21.809 -303.551,53.371 V 118.941 C 561.012,53.5313 614.531,0 679.91,0 h 1330.51 c 65.38,0 118.86,53.5313 118.86,118.941 v 688.391 c -147.01,-65.48 -330.43,-146.945 -445.08,-197.023 19.1,-50.118 49.58,-137.469 59.7,-208.528 15.14,-106.109 4.21,-218.66 -39.03,-129.871 C 1667.6,348.352 1555.12,501.559 1524.5,542.73 1400.35,491.941 1221.93,423.961 1036.51,394.691 999.305,349.41 960.352,303.648 924.031,264.039 796.406,124.969 770.973,144.031 770.973,144.031 c 6.269,6.367 13.371,13.867 20.953,22.117 2.754,3.012 5.816,6.5 8.711,9.723 5.066,5.57 10.113,11.188 15.554,17.391 3.801,4.34 7.778,8.957 11.727,13.508 4.91,5.691 9.789,11.332 14.891,17.359 4.566,5.383 9.171,10.851 13.863,16.43 4.687,5.621 9.379,11.23 14.148,17.011 5.157,6.231 10.243,12.43 15.442,18.828 4.379,5.344 8.711,10.723 13.09,16.153 5.617,6.961 11.125,13.828 16.691,20.847 3.832,4.793 7.562,9.582 11.348,14.411 5.918,7.531 11.789,14.961 17.558,22.421 3.149,4.102 6.141,8.051 9.242,12.122 6.145,8.007 12.286,16.046 18.141,23.859 0.031,0.027 0.066,0.07 0.082,0.098 v 0 c 8.438,11.25 16.637,22.351 24.219,32.863 29.107,40.387 58.397,79.519 82.267,110.898 25.73,33.821 45.2,58.774 51.07,66.266 L 1212.38,619 c 0,0 -20.3,-27.207 -51.84,-68.18 233.51,67.086 447.89,200.516 662.2,402.434 137.52,129.586 339.52,129.586 423.95,129.586 67.11,0 300.05,0 389.09,0 5.25,6.23 9.85,12.43 13.31,18.54 8.99,15.59 11.95,28.58 11.74,39.48 h -539.88" /></g></g></svg>